<?xml version="1.0" encoding="UTF-8"?>
<svg version="1.1" viewBox="0 0 1600 1317" width="544" height="448" xmlns="http://www.w3.org/2000/svg">
<path transform="translate(870,32)" d="m0 0h28l22 2 45 9 36 9 18 6 17 8 19 12 15 10 13 11 12 9 11 9 13 13 8 7 9 10 11 12 7 10 13 24 10 19 11 26 5 13 7 13 8 7 18 8 16 9 17 12 12 11 9 9 7 8 9 10 9 11 12 15 12 19 11 17 6 12 7 24 6 23 5 21 4 24 4 14 10 4 6 3 8 2 15 9 13 11 14 10 8 8 7 8 13 15 13 14 7 13 6 11 9 15 5 12 15 39 8 27 5 28 1 13v57l-2 13-3 11-2 11-2 3h-2l-1 11-3 7h-2l-1 11-4 5-4 11-2 1-3 8-3 1-2 10-4 1-1 8-5 4-2 5-3 2-3 7-15 16-8 8-4 5-5 4-1 2h-2l-1 3-8 7-8 8-15 11-15 10-15 9-30 16-10 6-15 7-28 10-24 6-22 3h-39l-37-4h-11l-17 11-13 11-8 5-29 9-13 4h-6l-13-8-2-1-9 1-10 5-9 8-10 7-16 7-12 4h-13l-26-9-6 1-6 4h-2l-2 6-8 11-13 17-12 14-16 16-11 9-28 20-9 7-12 9-16 8-34 13-27 8-26 5-25 3-27 1-25-2-31-6-24-7-30-12-18-8-20-11-18-11-17-12-12-9-8-7-14-14-11-14-9-9-7-8-9-10-8-13-12-22-10-19-7-16-4-8-11-30-6-20-5-24-2-26v-45l1-22-3-5-4-3h-12l-7 2-10 1-170 1h-29l-7-3-10-9-4-8-1-10 5-10 10-7 11-4 10-4 12-4h15l29 3h23l3-1h13l17 2 19-1 12-2-4-8-11-12-19-19-9-14-9-19-5-16-3-22v-11l3-21 3-7 1-14-3-8-3-2h-8l-7 1h-28l-9-6-5-5-6-8-2-5v-12l4-9 8-8 10-6 9-2h34l3-1 24-2 4-4 4-11 1-12-3-6-3-1-32-1-75-1h-104l-9-3-12-5-8-6-6-10v-11l4-8 7-7 13-7 1-1h149l44 3 10 1h18l5-6 1-10 1-28 3-19 4-21 3-4 5-17 1-16 2 1 7-13 10-13 11-16 9-14 6-9 15-22 9-12 5-6 16-8 41-22 6-5-9-13-9-7-18-8-19-7-16-8-12-7-14-10-8-7-7-10-5-15 2-10 5-10 10-6 5-2h19l14 5 14 9 16 12 11 7 11 4 6 2 14 2 8 2 7-1 11-9 11-8 5-3h5l2-4 10-3 3-3 23-6 8-1h30l19 2 48 12 19 7 7 2h8l7-6 9-11 11-12 9-10 7-8 8-8 11-9 9-7 13-8 4-3 6-1 2-4 8-4 9-5 5-3 9-3 6-3 10-3 7-3 17-5 33-6z" fill="#7327AD"/>
<path transform="translate(416,238)" d="m0 0 9 2 12 5 6 5 4 22 8 38 6 35 8 46 9 49 8 43 8 40 7 34 14 75 11 51 9 42 6 18 7 13 11 14 12 10 15 9 17 8 9 3 13 2 23 1 182 1 48 1 91 1 23 1 81 1-3 3v3l-8 2v3l-5 2 4 2-2 4-2 1 5 2-1 3h-3l-4 1 9 1 3 3 6 1v2l7 1 8 4-2 1-16-5-15-3h-17l-20 3-20 7-16 8-10 7-15 15-6 5-6 11-3 10-5 24v9l2 17 4 17 8 20 9 16 9 11 10 11 11 8 15 8 17 5 18 3h13l18-3 17-6 15-8 11-8 10-9 8-9 8-13 8-16 4-17 1-9v-17l-3-20-5-16-6-12-6-10-9-10-10-9-15-9-7-4 2-1 9 2 6 3 4 3v2l5 1 9 6 7 5v2h2l5 9 2 1 1-4 4 1 1 3 5 1 3 5 3 8 4 1 1-2 3 1 3 5 12 6 6 1 2 6v2l5 1-1 9-2 6-4 5-9-2-1 10h-2l-1 19-2 5-1-4-1-1-1 19 3 1-2 14h2l1-11h3l-1 10 2 1 1-6 6-1 4-3 8 2 7 2 1 5 1 7 5 5 5 4h4v4l4 2h6l7 4 2-3 2 5 5 3 2-2v2l8 1v2h3v2h2l3 4v2l6 2 5 5 4 2 1 6-3 1 1 5h18l3-2 12-4 5-2 10-1v-2h5v-2l12-6 5-1 16-8 5-3 9-5 5-2v-2l6-3 6-4 5-4 7-4 1-2h3l1-4 2-3h2l2-4 8-5 4-6 7-5h2l1-3h2l2-4 7-8h2v-2l5-4h2v-2l8-8h2l1-4 5-4-2 5-13 16-27 27-8 7-15 13-15 11-17 11-27 14-24 12-21 8-21 6-21 4-13 2-26 1-25-2-28-4-9 1-14 12-12 9-11 6-7 2-8 1-21 2-17-1-13-1h-10l-1 3-10 7-11 8-16 9-10 4-9 2-13-1-11-4-11-7-1-4-5 5-20 26-11 12-9 10-9 11-7 7-8 7-13 11-15 11-23 16-17 10-17 8-36 12-22 6-27 5-19 2h-24l-25-3-23-4-23-6-33-13-11-5-23-11-17-10-36-26-13-12-14-15-7-8-9-10-13-17-11-16-5-9-3-3-11-21-7-16-4-8-11-30-6-20-5-24-2-26v-45l1-22-3-5-4-3h-12l-7 2-10 1-170 1h-29l-7-3-10-9-4-8-1-10 5-10 10-7 11-4 10-4 12-4h15l29 3h23l3-1h13l17 2 19-1 12-2-4-8-11-12-19-19-9-14-9-19-5-16-3-22v-11l3-21 3-7 1-14-3-8-3-2h-8l-7 1h-28l-9-6-5-5-6-8-2-5v-12l4-9 8-8 10-6 9-2h34l3-1 24-2 4-4 4-11 1-12-3-6-3-1-32-1-75-1h-104l-9-3-12-5-8-6-6-10v-11l4-8 7-7 16-6 5-1h38l110 1 39 3 24 1 5-2 4-5 1-2 1-36 6-35 5-12 5-15 2-13 8-15 8-9 4-7 9-13 8-13 7-10 6-9 5-8h2l2-5 9-11 11-9 11-6 8-3 1-2 19-9 14-8 2-3h2l1-5z" fill="#442674"/>
<path transform="translate(323,127)" d="m0 0h19l14 5 14 9 16 12 11 7 11 4 6 2 14 2 8 2 7-1 11-9 11-8 5-3h5l2-4 7-2 3 1-9 2-2 4-9 3-13 12-9 7-3 1h-12l3 3 27 14 15 9 11 8 9 9 4 11 11 65 2 7 369 2h259l40 1 16 4 13 7 10 9 7 11 2 6v14l-4 23-13 50-8 27-14 43-7 30-10 44-6 21-7 21-7 17-8 10-11 10-13 9-17 8-15 4-7 1-20 1h-163l-23-1h-22l-43 1h-44l-35-1-88-1-14-3-12-6-13-8-2-2-11-3-8-1-3 1v15l4 20 8 30 6 16 6 9 8 6 10 3 12 1 98 1 59 1h327l10 2 10 6 7 8 3 8v7l-3 8-6 7-11 7-5 2-6 1-23 1h-125l-91-1-48-1-182-1-23-1-17-3-18-8-11-6-13-9-10-9-11-15-7-15-6-21-12-58-8-37-16-86-8-37-10-53-9-50-8-44-6-37-6-29-5-23-2-13-6-5-17-6h-2l5 5-2 5h-2l-2 4-16 9-14 7h-3l-1 3-10 4-10 6-10 8-9 11-2 4h-2l-2 5-7 10-7 11-6 9-7 11-8 11-3 5-6 7-8 15-3 16-7 20-2 4-6 35-1 36-4 6-3 3-4 1-24-1-39-3-114-1h-34l-13 4-6 2 3-3 8-4 1-1h149l44 3 10 1h18l5-6 1-10 1-28 3-19 4-21 3-4 5-17 1-16 2 1 7-13 10-13 11-16 9-14 6-9 15-22 9-12 5-6 16-8 41-22 6-5-9-13-9-7-18-8-19-7-16-8-12-7-14-10-8-7-7-10-5-15 2-10 5-10 10-6z" fill="#FDFEFE"/>
<path transform="translate(1037,838)" d="m0 0h17l15 3 16 5 17 8 12 8 15 14 6 8 9 16 5 15 3 15 1 9v17l-2 14-4 14-8 16-8 12-11 12-9 8-16 10-18 8-17 4-8 1h-13l-18-3-17-5-17-9-13-11-10-11-9-13-8-15-6-16-4-17-2-17v-9l6-29 4-9 6-9 13-12 9-9 15-9 20-8 14-4z" fill="#FDFEFE"/>
<path transform="translate(644,837)" d="m0 0h25l12 2 17 7 10 5 12 9 10 9 8 8 7 10 8 17 5 19 1 6v30l-4 17-5 13-7 14-9 12-12 12-15 10-25 12-18 4h-16l-18-2-16-5-21-11-13-10-10-10-10-13-9-19-7-25-3-14v-21l4-15 3-6 9-12 3-8 7-9 6-7 19-13 25-10 18-5z" fill="#FDFEFE"/>
<path transform="translate(870,32)" d="m0 0h28l22 2 45 9 36 9 18 6 17 8 19 12 15 10 13 11 12 9 11 9 13 13 8 7 9 10 11 12 7 10 13 24 10 19 11 26 5 13 7 13 8 7 8 3-4 1-5-2-4-3-7-3-3-5-11-28-14-29-10-20-7-11-12-17-11-13-16-17-12-11-9-7v2l3 1v2h2l1 2 5 3 3 3 3 5 3 3v2l3 1v2l3 1v2h2l3 4v2l4 2 4 4 5 7v2h2l13 18 3 7 2 11h2l1 6 2 1-1 2h2l3 13 5 4 1 3 2 1 3 5 2 4-1 2h2l1 7v7l3 6v5l-5 3-3 1-5 1-3 2h-3l-4-1-4-4-2-5v-9h-2v-4l-3-1v-2-3h-2v-3l-2-1-2-5-1-3-3-1v-2h-2l-1-5v-4l-3 1v-3h-3v-2l-3 1h-4l-6-1-4 2-1 2-10-1-5-3h-2v2h-2l-6-8h-13l-4 2-1-3-7-3-1-2-7-3-3-1-9-2-6-2v-2l-4-1v-2h-2v-2l-4-2-3-2-5-2-7-2v-2l-3 1v-2h-2l-1 3-3 1-4-3v2l-8-2-2 1v-2l-3-1-3-2-1 2v-2h-2l-2-2h-4v-2h-4l-5-1 2-5-4-1 1-2h-2v-2h-5l-2-2h-5l-1-3-2-1v-2l-8-1-3-1v-2h2v-2l-8-1-6-4-4-4-5-2-7-4-7-3-6-3v-2l-7-2-4-2-5-3-1-2-12 1-1-1-2 2-2-5-7-4-4-2-1-2h-2v-2l-10-1 1-3h-2v2h-2v-2l-11-3-2-1v-2l-5-2-2-2-2 1v-2l-6 1-3-1-1-2-3-2-2-1v-2l-2-1-6-2-13 2-6 2-4 1-7 2-4-1-1 2h-7v2l-3 1v-2l-6-1-10 7-6 3-11 10-8 7-12 12-7 8-10 11-8 11-7 8-10 3-2 2-4-1-8-5-12-5-13-4-16-4-33-7-20-1-23 1-14 4-12 3h-3l3-3 23-6 8-1h30l19 2 48 12 19 7 7 2h8l7-6 9-11 11-12 9-10 7-8 8-8 11-9 9-7 13-8 4-3 6-1 2-4 8-4 9-5 5-3 9-3 6-3 10-3 7-3 17-5 33-6z" fill="#9B22CB"/>
<path transform="translate(583,646)" d="m0 0 13 2 7 3 9 6 14 8 10 3 7 1 88 1 35 1h44l43-1h22l23 1 93 1v3h-9v2h-11l-4 1 1 3 5 1 2 4 13 3 4 2v5l6 1 1 7 6 1 3 3 4 3h7l3 3v6h3v-2h3v2l3-1v2l3 1 1 3-4 1v2l5 1v4l-7 2-23 2-15 5h6l1 2 15 1 5 2h11l5 1h32l37-1 10 1 14 2 10 5 8 6v2h2l3 3 1 6h2l1 5-2 7-4 10-4 5-5 3-11 3-8 3h-8l-1-2 15-3 10-6 5-5 4-5 2-6v-7l-3-8-6-7-10-6-10-2h-327l-59-1-98-1-17-2-10-5-8-9-5-11-6-20-8-32-1-7v-15z" fill="#442674"/>
<path transform="translate(523,353)" d="m0 0h23l26 2 108 1v100h-134l-5-3-3-6-8-35-7-38-3-13v-7z" fill="#442674"/>
<path transform="translate(1114,1151)" d="m0 0h12l17 5 15 9 10 9 6 8 7 12 5 18 1 14-5 25-10 14-11 11-15 11-11 4-13 2h-9l-18-3-16-8-9-8-11-22-6-22v-17l3-9 4-14 7-10 9-11 12-13 11-3z" fill="#442674"/>
<path transform="translate(1031,356)" d="m0 0 32 1 56 1h48l-2 9-9 27-9 42-5 16-1 6h-108v-28l-2-65z" fill="#7327AD"/>
<path transform="translate(571,511)" d="m0 0 42 1h68l1 1v101h-34l-35-2-10-2-11-6-5-4-7-9v-2h-2l-4-6v-2h-2l-7-12-7-24-5-24v-8l1-1z" fill="#442674"/>
<path transform="translate(1035,891)" d="m0 0h22l12 4 11 7 9 10 6 10 4 15 1 14-3 12-9 16-9 11-11 7-8 3-10 2-16-1-13-4-10-6-9-9-7-12-4-11-2-12 1-13 4-13 5-8 9-10 9-6 14-5z" fill="#442674"/>
<path transform="translate(736,510)" d="m0 0h17l17 1h58l1 1v104l-1 1h-89l-1-3 1-5v-48l-3-37z" fill="#442674"/>
<path transform="translate(885,509)" d="m0 0 37 3 53 1 1 4v99l-1 1h-89l-1-3v-42l-1-41v-21z" fill="#442674"/>
<path transform="translate(735,354)" d="m0 0 36 1 56 1 1 4 1 32v66h-90l-2-64-2-29z" fill="#442674"/>
<path transform="translate(885,355)" d="m0 0 47 1 44 1 1 13 1 88h-65l-27 2-1-4z" fill="#7327AD"/>
<path transform="translate(647,890)" d="m0 0h13l11 3 12 6 10 9 7 12 3 9 1 8v12l-1 13-4 8-9 11-7 7-11 7-9 4-7 1h-11l-12-3-11-6-10-9-7-10-5-11-3-11v-15l5-12 6-10 7-9 11-8 10-4z" fill="#442674"/>
<path transform="translate(1380,522)" d="m0 0 5 2 11 3 15 9 13 11 14 10 8 8 7 8 13 15 13 14 7 13 6 11 9 15 5 12 15 39 8 27 5 28 1 13v57l-2 13-3 11-2 11-2 3h-2l-1 11-3 7h-2l-1 11-4 5-4 11-2 1-3 8-3 1-2 10-4 1-1 8-5 4-2 5-3 2-3 7-15 16-8 8-4 5-5 4-1 2h-2l-1 3-8 7-8 8-15 11-15 10-15 9-30 16-10 6-15 7-28 10-24 6-22 3h-39l-37-4h-11l-17 11-13 11-8 5-29 9-13 4h-6l-13-8-2-1-9 1-10 5-9 8-10 7-16 7-12 4h-13l-26-9-6 1-6 4h-2l-2 6-8 11-13 17-12 14-16 16-11 9-28 20-9 7-12 9-16 8-34 13-27 8-26 5-25 3-27 1-25-2-31-6-24-7-30-12-18-8-20-11-18-11-17-12-12-9-8-7-14-14-11-14-9-9-7-8-9-10-8-13-9-16 1-2 10 16 13 18 11 13 11 12 7 8 9 10 12 11 14 10 17 12 14 9 25 13 23 10 29 11 25 6 32 5 11 1h24l19-2 27-5 29-8 34-12 23-12 16-11 20-14 16-13 8-7 13-12 9-11 12-13 11-13 14-19 5-6h2l1 4 18 9 10 2h7l15-4 15-8 15-10 9-7 3-3 4-1h12l22 2 13-1 12-1 12-2 4-3 8-4 14-11 12-10 9-1 36 5 24 1 19-1 25-4 24-6 20-7 29-14 24-12 16-10 14-10 10-8 13-11 16-15 20-20 15-20 11-16 8-13 8-15 8-20 8-26 6-29 2-17v-40l-4-32-5-21-7-23-12-29-11-24-13-23-8-11-11-12-9-10-13-14-11-9-18-14-16-9-8-1z" fill="#FDFEFE"/>
<path transform="translate(1030,510)" d="m0 0 36 2 60 1-1 9-8 24-5 14-3 15-6 32-3 6-4 1-51 3h-14l-1-51z" fill="#7327AD"/>
<path transform="translate(39,697)" d="m0 0h28l30 1 24 2 23 3 8 10 1 18-1 9-3 3h-2l-1 5-1 1h-97l-9-3-12-6-7-9-2-5v-13l5-8z" fill="#442674"/>
<path transform="translate(39,505)" d="m0 0h20l5 1h17l9 1 5 2 9 2 3 3v4l7 4 6 7 1 5-3 1-2 2-6 2-4 4-3 1h7l3 2 13 1 17 3 10 2v2h-119l-11-6-8-9-1-2v-13l3-7 6-6z" fill="#28124E"/>
<path transform="translate(490)" d="m0 0 9 1 10 4 8 7 4 8 2 3 1 9v18l-2 9-8 10-10 7-7 3-7 1h-11l-9-2-9-8-4-11-2-7v-15l4-15 7-11 8-6 10-4z" fill="#7242A8"/>
<path transform="translate(214,350)" d="m0 0h38l12 6 5 5 5 8 3 10v6l-7 6-12 5-28 4-9 1h-23l-14-4-6-4-5-9v-11l4-11 5-5 11-4 9-2z" fill="#442674"/>
<path transform="translate(277,962)" d="m0 0h10l14 7 12 11 6 10v8l-4 10-9 13-8 8-14 8h-11l-14-7-5-4-6-9-1-3v-27l4-9 5-6 5-4z" fill="#442674"/>
<path transform="translate(1030,510)" d="m0 0 4 1-1 6-1 4v14l2 12 3 7 1 11 1 6 6 2 2-3 9 3v-5l-1-2 6 1 6-1 3 2-5 3 4-1 3-2h4l1 4 1 7 5-2 1-2 5 1v2h4l-1-6 1-2 7 2-1-7 4-1v-2h2l3-8 5-1-8 44-3 13-2 3-4 1-51 3h-14l-1-51z" fill="#452675"/>
<path transform="translate(103,350)" d="m0 0h12l14 2 9 3 5 5 3 5 1 6v14l-2 5-4 5-10 3-23 3h-15l-13-5-6-5-4-7-1-4v-10l4-7 10-7 14-5z" fill="#442674"/>
<path transform="translate(1112,1061)" d="m0 0h13l21 4 7 2 5 1 1 3h-2l1 3-12 10-11 8-8 4-7 2-8 1-21 2-17-1-13-1h-10l-1 3-10 7-8 6-2-1 2-4 4-4v-3l7-1 2-7 5-2 3-4h3v-2l11-5 4-2 10-6h3l1-4 7-3 10-3 5-2z" fill="#7242A7"/>
<path transform="translate(28,707)" d="m0 0h2l2 5 9-2h29l10 2 21 6 4 3 7 2 2 4-6 3-2 6 5 3h5l1 4 2 1h-72l-16-5-8-6-3-5v-12l4-4v-2h2l1-2z" fill="#28124E"/>
<path transform="translate(430,174)" d="m0 0 8 1 2 1v2l6 2 12 6 22 14 12 11 4 3 7 4 3 6 2 1 1 3h3l2 4-1 4-3-1-1 6 2 3-2 1 1 1v7l-3 1 3 10v7l3 9 1 7 4 7 5 3v-2l9-4-1-2h-3l-4-7-3 2-2-9 7-2-1 4 5-3h2l1 4 3-2 10-3 8 2h13l3 3 1 5h-3l-1 3h-2l2 4h-4l11 1 5 2 9 1 19 1h53l12 1 6 2 13 1v1h-179l-2-3-9-52-4-22-4-8-9-9-17-11-27-14-10-6z" fill="#462776"/>
<path transform="translate(1419,247)" d="m0 0 7 1 8 7 11 15 5-5 8-9 6-4 5 2 5 5 2 5v10l-6 9-2 1h-14l-10-6-9 6-3 1h-12l-14-3-16-5-6-4-3-5 1-5 8-5 5-2 10-2 6-4z" fill="#FDFEFE"/>
<path transform="translate(15,520)" d="m0 0 1 2-1 2v13l7 9 10 6 8 2 192 1 4-1 24-1 4 2 2 13 1 2v9l-2 12-1 7-13 3-26 2h-27l-14 2-10 7-6 7-2 6v11l4 8 5 5 7 5 7 2h25l5-1h9l4 5-1 2-3-2h-8l-7 1h-28l-9-6-5-5-6-8-2-5v-12l4-9 8-8 10-6 9-2h34l3-1 24-2 4-4 4-11 1-12-3-6-3-1-32-1-75-1h-104l-9-3-12-5-8-6-6-10v-11z" fill="#FBFCFD"/>
<path transform="translate(870,32)" d="m0 0h28l22 2 45 9 36 9 18 6 17 8 19 12 15 10 13 11 12 9 11 9 13 13 8 7 9 10 11 12 7 10 13 24 10 19 11 26 5 13 7 13 8 7 8 3-4 1-5-2-4-3-7-3-3-5-11-28-14-29-10-20-7-11-12-17-11-13-16-17-12-11-15-12-14-11-10-7-22-14-17-9-15-6-18-5-24-6-22-5-19-3-12-3h-55l-27 5-12 2-21 7-14 5-12 5-13 7-9 5-8 5-11 7-7 4-11 9-13 12-10 10-7 8-10 11-8 11-7 8-10 3-2 2-4-1-8-5-12-5-13-4-16-4-33-7-20-1-23 1-14 4-12 3h-3l3-3 23-6 8-1h30l19 2 48 12 19 7 7 2h8l7-6 9-11 11-12 9-10 7-8 8-8 11-9 9-7 13-8 4-3 6-1 2-4 8-4 9-5 5-3 9-3 6-3 10-3 7-3 17-5 33-6z" fill="#FDFEFE"/>
<path transform="translate(554,512)" d="m0 0h17l1 13 1 11 6 14 4 6v3h2l4 5 3 2 3 15 1 4 1 9h2l4 13 4 2 6 1v1h-7l-14-7-5-4-7-9v-2h-2l-4-6v-2h-2l-7-12-7-24-5-24v-8z" fill="#7343A8"/>
<path transform="translate(885,355)" d="m0 0 5 1-1 9-1 23v30l3 13 2 20h9l4-1 19 1 20-1 17-4 3-7 3-11 1-21 4-25v-16l-4-8h7l1 12 1 88h-65l-27 2-1-4z" fill="#472777"/>
<path transform="translate(1114,1151)" d="m0 0h12l17 5 15 9 10 9 6 8 7 12 5 18 1 14-5 25-10 14-11 11-15 11-11 4-13 2h-9l-18-3-16-8-9-8-8-16-1-4 4 4 3 7 6 7 13 8 11 5 11 2h9l10-2 15-6 12-7 10-9 8-9 6-13 2-10v-19l-4-16-7-13-8-10-9-8-12-7-16-4-12 1-20 2-5 3-9 9-9 11-9 14-5 17-1 7v10l3 12 2 6v6h-1l-6-22v-17l3-9 4-14 7-10 9-11 12-13 11-3z" fill="#FDFEFE"/>
<path transform="translate(1338,145)" d="m0 0 12 1 3 3-1 15 11 10 2 4v9l-5 5-4 2h-11l-12-4-4-4-2-10 3-27 3-3z" fill="#FCFDFD"/>
<path transform="translate(750,358)" d="m0 0 4 1 29 1 3 1 12 1h3l3 3 3 2 4-1-1 7-5 1-6 1-3 2 1 2-7 2-1 1 4 1v5l4 1v2l-4 1h-14v2l-6-1-5-3-5-1 1-5 1-4-5-1-4-5-11-6-1-4z" fill="#7326AD"/>
<path transform="translate(1455,438)" d="m0 0h7l9 6 6 9 1 6-3 7-7 7-6 3h-8l-10-4-6-5-3-5v-6l6-9 8-6z" fill="#462776"/>
<path transform="translate(1504,433)" d="m0 0 7 1 7 8 5 10 1 3v7l-6 9-7 7-7 1-8-6-7-10-1-2v-8l6-12 8-7z" fill="#7328AD"/>
<path transform="translate(533,396)" d="m0 0 4 1v2h2l1-1 4 1 8 4 2 4 1 8v15l-1 5 2 10-1 7h-2v4h-7l-5-3-3-6-8-35-1-11 2 1 2-4z" fill="#7327AC"/>
<path transform="translate(406,833)" d="m0 0 5 1 9 7 5 8v12l-5 8-9 7-11 4-11 2 2-12 4-18 6-12 4-6z" fill="#FDFEFE"/>
<path transform="translate(1278,1142)" d="m0 0h9l5 3 4 5 3 6 1 5v8l-4 7-6 5-2 1-9-1-6-4-6-7-2-5v-8l5-10 5-4z" fill="#442674"/>
<path transform="translate(1419,249)" d="m0 0 7 1 6 7 1 3v14l-4 8-4 2h-7l-5-2-7-6-5-6-4 4-5 1-6-4-2-3 1-5h5l1-3 6-1 4 2 5-6 6-4z" fill="#7228AC"/>
<path transform="translate(1464,327)" d="m0 0h8l6 4 4 5 4 11v9l-5 10-3 2h-9l-6-4-6-7-4-8v-7l5-10z" fill="#452675"/>
<path transform="translate(490)" d="m0 0 9 1 10 4 8 7 4 8 2 3 1 9v18l-2 9-8 10-10 7-7 3-7 1h-11l-9-2-9-8-4-11-2-7v-15l4-15 7-11 8-6 10-4zm1 2-11 2-13 8-4 8-3 5-2 10v19l3 10 8 7 9 3h14l9-3 10-9 5-8 2-5 1-6v-10l-3-10-5-9-6-7-7-4z" fill="#FDFEFE"/>
<path transform="translate(1237,286)" d="m0 0 5 2 17 12 12 11 9 9 7 8 9 10 9 11 12 15 12 19 11 17 6 12 7 24 6 23 5 21 4 24 4 15-4-2-4-4-6-38-5-22-7-25-6-17-8-16-14-23-13-17-13-15-12-13-7-8-18-18-14-10z" fill="#FDFEFE"/>
<path transform="translate(1546,438)" d="m0 0h7l5 3 5 8 1 3v8l-6 11-5 5-4 2-11-6-4-5-3-6 1-8 4-8 8-6z" fill="#7329AD"/>
<path transform="translate(1413,331)" d="m0 0h10l7 4 5 10v9l-4 6-6 4h-11l-9-4-4-5-1-9 3-8 5-5z" fill="#462776"/>
<path transform="translate(1284,148)" d="m0 0h7l5 3 1 5 1 14v19l-6 5-8-1-12-4-3-3 6-12 5-21z" fill="#7329AD"/>
<path transform="translate(39,697)" d="m0 0h28l30 1 24 2 23 3 8 10 1 18-1 9-3 3h-2l-1 5-1 1h-97l-9-3-12-6-7-9-2-5v-13l5-8zm7 1-12 3-10 5-5 8v11l4 8 8 6 16 5 7 1h85l6-4 4-6 1-3v-12l-4-10-7-6-25-3-18-1h-12l-30-2z" fill="#FDFEFE"/>
<path transform="translate(1555,514)" d="m0 0 8 2 6 5 2 5v12l-3 5-6 5-2 1h-7l-7-3-7-7-4-6 2-5 7-8 7-5z" fill="#7227AB"/>
<path transform="translate(126,843)" d="m0 0 4 1-14 7-3 4-2 7 1 10 5 8 6 4 6 2 7 1 134-1 56-1 13-1h20l5 5v3l-6-5h-12l-7 2-10 1-170 1h-29l-7-3-10-9-4-8-1-10 5-10 10-7z" fill="#FDFEFE"/>
<path transform="translate(214,350)" d="m0 0h38l12 6 5 5 5 8 3 10v6l-7 6-12 5-28 4-9 1h-23l-14-4-6-4-5-9v-11l4-11 5-5 11-4 9-2zm9 1-22 2-16 4-7 6-2 6-1 13 4 6 6 5 3 1h34l28-1 12-3 6-7 2-4v-12l-4-8h-2v-2l-12-5-9-1z" fill="#FCFDFD"/>
<path transform="translate(1243,149)" d="m0 0h8l1 2 2 18 6 10 6 6-1 5-7 5-8 1-7-4-6-8-2-5v-17l2-7 5-5z" fill="#FDFEFE"/>
<path transform="translate(1508,520)" d="m0 0h6l10 6 5 5-1 5-8 11-9 6-6-1-6-4-5-5-1-8 5-8 7-6z" fill="#FDFEFE"/>
<path transform="translate(103,350)" d="m0 0h12l14 2 9 3 5 5 3 5 1 6v14l-2 5-4 5-10 3-23 3h-15l-13-5-6-5-4-7-1-4v-10l4-7 10-7 14-5zm-3 2-16 5-11 8-2 4v12l4 6 8 7 6 2h21l17-3 8-4 4-5 1-3v-15l-3-8-8-4-11-2z" fill="#FDFEFE"/>
<path transform="translate(1459,520)" d="m0 0 9 1 10 9 2 3v5l-7 7-8 4-9-1-8-7-1-7 3-8 6-5z" fill="#452675"/>
<path transform="translate(264,568)" d="m0 0h2l1 2v9l-2 12-1 7-13 3-26 2h-27l-14 2-10 7-6 7-2 6v11l4 8 5 5 7 5 7 2h25l5-1h9l4 5-1 2-3-2h-8l-7 1h-28l-9-6-5-5-6-8-2-5v-12l4-9 8-8 10-6 9-2h34l3-1 24-2 4-4 4-11z" fill="#FDFEFE"/>
<path transform="translate(491,2)" d="m0 0 9 2 8 6 6 9 4 9 1 5v10l-2 8-4 8-9 10-8 4h-9l1-2 6-1 1-2h3l2-5 7-8 4-6 2-9-1-12h-2v-2l-4-2-5-6-2-6-4 1-7-3-6-1 1-2 6-1v-3z" fill="#7129AA"/>
<path transform="translate(243,776)" d="m0 0 4 4 7 11 11 12 8 7 15 12 10 6 4 3-6 2-15 4-8 1h-77l-21-2h-18l-20 5-4 2-3-1 8-4 18-6h15l29 3h23l3-1h13l17 2 19-1 12-2-4-8-11-12-19-19-9-14z" fill="#FDFEFE"/>
<path transform="translate(277,962)" d="m0 0h10l14 7 12 11 6 10v8l-4 10-9 13-8 8-14 8h-11l-14-7-5-4-6-9-1-3v-27l4-9 5-6 5-4zm3 1-17 6-9 7-5 9-1 4v23l4 8 8 8 10 4 8 1 10-3 9-7 7-7 7-10 4-10-2-10-6-9-7-7-12-6z" fill="#FDFEFE"/>
<path transform="translate(498,16)" d="m0 0 1 3h2v3l-4 1 1 4 2 1 1 5-4 3-5-1v3h5l-4 2-2 6h-3v2l-7 1v-2h-2l-2-12-1-3 5-8h3l2-4 5-1h7z" fill="#7327AD"/>
<path transform="translate(1504,433)" d="m0 0 7 1 7 8 5 10 1 3v7l-6 9-7 7-7 1-8-6-7-10-1-2v-8l6-12 8-7zm2 2-8 4-4 5-3 7v7l5 10 5 4h7l5-5 2-5 1-6v-12l-3-6-4-2-2 1z" fill="#FDFEFE"/>
<path transform="translate(479,1190)" d="m0 0 4 2 10 8 6 2 5 5 10 7 5 3 4 3h3l4 4 32 16 11 5 18 7 9 3 9 4 3 1-1 2h-6l-33-13-11-5-23-11-17-10-36-26-6-5z" fill="#301758"/>
<path transform="translate(1475,937)" d="m0 0v3l-9 12-9 10-23 23-8 7-15 13-15 11-17 11-27 14-5 2 1-3 16-8 5-3 9-5 5-2v-2l6-3 6-4 5-4 7-4 1-2h3l1-4 2-3h2l2-4 8-5 4-6 7-5h2l1-3h2l2-4 7-8h2v-2l5-4h2v-2l8-8h2l1-4z" fill="#472877"/>
<path transform="translate(1284,148)" d="m0 0h7l5 3 1 5 1 14v10l-4 3-6-1-4-5-2-7v-12l3-3 8-3-1-1h-6l-4 4-2 6h-1l1-8z" fill="#FDFEFE"/>
<path transform="translate(1278,1142)" d="m0 0h9l5 3 4 5 3 6 1 5v8l-4 7-6 5-2 1-9-1-6-4-6-7-2-5v-8l5-10 5-4zm-1 2-6 4-4 8v9l4 6 5 4h6l8-7 5-8-1-7-4-6-4-3z" fill="#FDFEFE"/>
<path transform="translate(1546,438)" d="m0 0h7l5 3 5 8 1 3v8l-6 11-5 5-4 2-11-6-4-5-3-6 1-8 4-8 8-6zm-1 2-9 8-2 15 4 6 5 1 8-6 7-8 1-7-3-6-3-3z" fill="#FCFDFD"/>
<path transform="translate(1338,147)" d="m0 0h9l2 2-9 2-5 5-2 4 1 10 4 6 3 2h8l5-10h2l5 9v5l-12 5h-13l-6-5-1-5 2 1-1-5v-16l3-7z" fill="#482878"/>
<path transform="translate(1463,255)" d="m0 0 5 1 3 5v10l-4 7-2 1h-11l-6-4-2-5 6-3 8-10z" fill="#7328AD"/>
<path transform="translate(1338,145)" d="m0 0 9 1v1l-12 2-3 4-1 4v16l1 6-2-1 2 5 4 3h13l9-4h3l-2-7-3-4 1-2 6 5 2 4v9l-5 5-4 2h-11l-12-4-4-4-2-10 3-27 3-3z" fill="#FDFEFE"/>
<path transform="translate(1506,522)" d="m0 0h7l4 2 3 6-3 9-5 5h-8l-7-5-1-6 7-7z" fill="#482878"/>
<path transform="translate(1555,514)" d="m0 0 8 2 6 5 2 5v12l-3 5-6 5-2 1h-7l-7-3-7-7-4-6 2-5 7-8 7-5zm-3 2-2 1v2l-5 2-5 6v6l5 7 4 2h7l5-3 6-7 1-6-2-5-6-5z" fill="#FDFEFE"/>
<path transform="translate(1464,440)" d="m0 0 4 2 5 4 4 7 1 6-3 7-7 7-6 3h-8l-10-4-6-5-3-5v-6l2-2 6 8 8 7 4 1h7l5-4 5-9-1-11-5-1-2-2z" fill="#F9F9FC"/>
<path transform="translate(140,880)" d="m0 0h24l23 2 6 1-1 3-32 1-8 1h-16l-7-1 1-4h-4l1-2h8 3z" fill="#2B1452"/>
<path transform="translate(1464,327)" d="m0 0h8l6 4 4 5 4 11v9l-5 10-3 2h-9l-6-4-6-7-4-8v-7l5-10zm3 1-7 5-2 4-3 3v10l5 9 9 6 4-2 6-8 2-7-1-10-7-8z" fill="#FDFEFE"/>
<path transform="translate(1245,151)" d="m0 0h6l-5 5-3 6 1 9 5 4 9 4 2 5-8 2-10-1-4-5-1-2v-19l4-6z" fill="#692AA1"/>
<path transform="translate(1118,750)" d="m0 0h9l10 5 8 6v2h2l3 3 1 6h2l1 5-2 7-4 10-4 5-5 3-11 3-8 3h-8l-1-2 15-3 10-6 5-5 4-5 2-6v-7l-3-8-6-7-10-6-10-2z" fill="#472877"/>
<path transform="translate(1511,440)" d="m0 0 4 1 1 3v12l-2 9-3 5-3 2h-7l-6-5-3-6v-6l3-1 7 10 3 1-1-3 5-5 2-6-1-9z" fill="#462776"/>
<path transform="translate(1459,520)" d="m0 0 9 1 10 9 2 3v5l-7 7-8 4-9-1-8-7-1-7 3-8 6-5zm-3 2-4 7-3 2v7l4 4h11l5-2 5-7-1-5-7-6z" fill="#FDFEFE"/>
<path transform="translate(1413,331)" d="m0 0h10l7 4 5 10v9l-4 6-6 4h-11l-9-4-4-5-1-9 3-8 5-5zm-2 2-5 4-4 6-1 6 4 6 5 4 3 1h8l5-3 4-5 1-8-3-8-3-3z" fill="#FDFEFE"/>
<path transform="translate(1411,333)" d="m0 0h14l-2 1 5 5v7l-2 3-5 1-3-3-4-2-5-4-1 7h-2l-1-3-2-1 1-4 5-6z" fill="#7329AC"/>
<path transform="translate(416,238)" d="m0 0 9 2v3l-1 6-5 7-13 6-12 6-10 4-4 4-8 2v2l-4 1-2-1-1 2-2-2 11-6 8-3 1-2 19-9 14-8 2-3h2l1-5z" fill="#7242A7"/>
<path transform="translate(1278,161)" d="m0 0h1l-1 14-3 9 11 1 7 1 5-3v6l-6 5-8-1-12-4-3-3 6-12z" fill="#FDFEFE"/>
<path transform="translate(558 1e3)" d="m0 0h2l8 11 11 12 11 9 16 9 13 6v2l-13-3-1-3-12-3-3-2-8-8-2-1v-2h-2l-1-4-4-2-6-5-5-7-4-7z" fill="#301758"/>
<path transform="translate(1216,275)" d="m0 0 14 6 7 4-2 1 2 4 6 4 1 4-5-1-7-3v-2l-4-1-5-2-7-11z" fill="#AF5CD4"/>
<path transform="translate(999,55)" d="m0 0 8 1 17 7 17 9 20 13 14 10 12 10 4 4-5-2-10-8-9-7-6-3-4-4-6-3v-2l-5-2-12-7-14-7-12-4-9-4z" fill="#732DAC"/>
<path transform="translate(1396,259)" d="m0 0 6 2v5l-5 8-5 1-6-4-2-3 1-5h5l1-3z" fill="#7230AA"/>
<path transform="translate(1463,255)" d="m0 0 5 1 3 5v10l-4 7-2 1h-11l-6-4-2-5h4l1 6 7 1 1-3h2l1-4-1-3 4 1 1-6v-4l-3-1z" fill="#482878"/>
<path transform="translate(1564,520)" d="m0 0 3 2 1 7-4 7-5 5-3 1h-7l-3-3 6 1 5-5-4-1v-4l4-1v-2l4-3h2z" fill="#452775"/>
<path transform="translate(1465,329)" d="m0 0 5 2 1 3-6 2-2 5-1 13-2 4-3-4-2-4v-10l4-5 5-5z" fill="#7327AD"/>
<path transform="translate(430,174)" d="m0 0 8 1 2 1v2l6 2 12 6 22 14 12 11 2 4-7-6-9-7-13-8-25-13-10-6z" fill="#4A297A"/>
<path transform="translate(312,347)" d="m0 0 1 2-6 10-2 4h-2l-2 5-1 3h-2l-1 4-3 4-2 4h-2v5l-4 5-2 11-2 1 2-16 8-15 8-9 4-7z" fill="#7343A8"/>
<path transform="translate(232,662)" d="m0 0 3 1 1 2v17l-4 14-1 8v41h-1l-3-22v-11l3-21 3-7 1-14z" fill="#FDFEFE"/>
<path transform="translate(214,350)" d="m0 0h38l12 6-2 1-10-4-9-1h-20l-22 2-16 4-6 5-2 6h-2l1-5 4-6 9-4 13-3z" fill="#FDFEFE"/>
<path transform="translate(1408 1e3)" d="m0 0h3v2l-15 11-17 11-27 14-5 2 1-3 16-8 5-3 9-5 5-2v-2l6-3 6-4 5-4 7-4z" fill="#49297A"/>
<path transform="translate(391,852)" d="m0 0h1l-1 12-3 15-4 1-2-3 1-8 2-8 2-5z" fill="#28124E"/>
<path transform="translate(264,557)" d="m0 0 2 2 4 1-1 6 2 2v9l-2 4-1 14-3 3-1-3 1-11 1-5v-9l-2-10z" fill="#7343A8"/>
<path transform="translate(885,355)" d="m0 0 5 1-1 9-2 52h-1l-1-31z" fill="#442674"/>
<path transform="translate(468,151)" d="m0 0h6l-4 3h-2l-3 5-4 1-1 4-6 4-5 4-2 3h-12l-5-1v-1l12-1 9-5 11-11z" fill="#7343A8"/>
<path transform="translate(427,1129)" d="m0 0 7 5 7 8 6 10 3 6-4-2-9-10-10-14z" fill="#2F1757"/>
<path transform="translate(1338,147)" d="m0 0h9l2 2-9 2-5 5-2 4v14l-2 2-1-3v-16l3-7z" fill="#722BAC"/>
<path transform="translate(402,832)" d="m0 0h6l-4 4-5 9-4 10-2 10h-1v-7l4-19 1-2h2l1-4z" fill="#7343A8"/>
<path transform="translate(1141,1161)" d="m0 0 5 1 10 8 1 5-2 1-9-6-3-1-3-5z" fill="#7427AE"/>
<path transform="translate(1091,109)" d="m0 0 4 2 12 11 10 9 15 16v3l-32-32-4-2v-2h-2l-3-3z" fill="#512A83"/>
<path transform="translate(350,687)" d="m0 0 20 1 25 2 1 2h-17l-31-3z" fill="#7343A8"/>
<path transform="translate(1119,1153)" d="m0 0 9 1 10 2v1l-5 1-40-1v-1l20-2z" fill="#7341A8"/>
<path transform="translate(39,505)" d="m0 0h4v2h-2v2l-5 3h-8v2l-8 5h-2l-2 1 2-4 5-5z" fill="#462776"/>
<path transform="translate(1145,637)" d="m0 0 2 1-1 2h-2v2l-9 7-11 9-16 8-6 1 3-3 17-8 13-10z" fill="#4B2A7C"/>
<path transform="translate(1552,516)" d="m0 0h8l4 3v3h-3v-2h-2v-2l-4 1-1 2-8 2-2 6-3 3-1-5 5-6 5-2v-2z" fill="#7142A6"/>
<path transform="translate(1161,361)" d="m0 0 5 1-4 14-2 5h-1l-1-5v-10z" fill="#7343A8"/>
<path transform="translate(1278,168)" d="m0 0h1l1 9h3l5 7-3 1h-8l-2-1 2-9z" fill="#7945AD"/>
<path transform="translate(1465,329)" d="m0 0v3l-5 6-1 10 2 5-3 3-3-6v-10l4-5 5-5z" fill="#7340A8"/>
<path transform="translate(1550,440)" d="m0 0 4 1 4 5 1 8-6 8-4 3 2-5 4-5-1-9-4-3z" fill="#472878"/>
<path transform="translate(1057,84)" d="m0 0 6 2 13 10 15 12h-3l-20-15-8-5z" fill="#6B2BA2"/>
<path transform="translate(1385,263)" d="m0 0h5l1 5 3 3 3 1v2l-5 1-6-4-2-3z" fill="#7343A8"/>
<path transform="translate(1456,522)" d="m0 0 5 1-4 4-2 5v6l-5 2-1-2v-7l4-4z" fill="#7346A6"/>
<path transform="translate(1245,151)" d="m0 0h6l-5 5-3 6h-2l-3 4-1-7 4-6z" fill="#732BAC"/>
<path transform="translate(1281,168)" d="m0 0 2 2 3 9 5 3 5-1 2-1-1 4-4 3-7-1-1-2 2-1-6-5z" fill="#532C85"/>
<path transform="translate(583,646)" d="m0 0 13 2 6 2-2 2-7-1-4-1h-8l-1 13h-1v-15z" fill="#7343A8"/>
<path transform="translate(1425,251)" d="m0 0 4 2 4 7v14l-3 6-1-2 2-5 1-7-2-1-2-6-3-6z" fill="#472878"/>
<path transform="translate(286,835)" d="m0 0 2 1v2l-7 1h-32v-1l24-1z" fill="#7343A8"/>
<path transform="translate(1123,513)" d="m0 0h3l-1 9-5 16-2 1 2-12 3-12z" fill="#4B2A7C"/>
<path transform="translate(1237,160)" d="m0 0 2 4 3-4 2 11 3 4-2 1-6-5-2-3z" fill="#442674"/>
<path transform="translate(386,268)" d="m0 0m-3 1h3v2l-6 5-8 2v2l-4 1-2-1-1 2-2-2 11-6 8-3z" fill="#7343A8"/>
<path transform="translate(807,1245)" d="m0 0h2v3l-22 8h-6l2-2 21-7z" fill="#351A5E"/>
<path transform="translate(1455,438)" d="m0 0h7l2 2h-8l-6 4-5 2-5 7-3 1 2-5 8-7z" fill="#FDFEFE"/>
<path transform="translate(1463,525)" d="m0 0 6 2 2 4v7l-8-1 3-3h2v-5l-4-2z" fill="#7236A9"/>
<path transform="translate(1332,176)" d="m0 0 7 6 6 3v1l-9-1-5-5z" fill="#7334AB"/>
<path transform="translate(1354,168)" d="m0 0h2l1 6-3 6-5-1z" fill="#7431AB"/>
<path transform="translate(535,425)" d="m0 0h1l2 12 2 1 1 8-2 4-5-20z" fill="#7343A8"/>
<path transform="translate(27,510)" d="m0 0 2 1-1 3-8 5h-2l-2 1 2-4 5-5z" fill="#917FAE"/>
<path transform="translate(615,1261)" d="m0 0 8 2 8 3v1h-7l-10-3z" fill="#301859"/>
<path transform="translate(1068,838)" d="m0 0 4 1v2l7 1 8 4-2 1-16-5-4-2z" fill="#4F2C80"/>
<path transform="translate(461,61)" d="m0 0 7 6 8 4 6 1v1h-9l-8-5-4-4z" fill="#4C2A7C"/>
<path transform="translate(1277,1144)" d="m0 0 2 1-4 3-1 3h-2l-1 4-4 2 3-7 5-5z" fill="#7334AB"/>
<path transform="translate(1128,802)" d="m0 0 2 1-6 4-4 1h-8l-1-2 15-3z" fill="#4B2A7C"/>
<path transform="translate(74,369)" d="m0 0 4 2-1 5 1 4-1 2-3-1v-5l-1-2z" fill="#28124E"/>
<path transform="translate(605,1042)" d="m0 0 5 1 9 4v2l-13-3z" fill="#371C60"/>
<path transform="translate(1402,265)" d="m0 0 1 3h2l4 8 2 3-4-2-7-8z" fill="#4A2A7B"/>
<path transform="translate(479,1190)" d="m0 0 4 2 10 8 3 2-1 2-11-8-5-4z" fill="#391D63"/>
<path transform="translate(391,858)" d="m0 0h1l1 9-3 12h-1v-9z" fill="#58328A"/>
<path transform="translate(592,142)" d="m0 0 16 3-4 2-3 1-8-4z" fill="#7343A8"/>
<path transform="translate(1501,437)" d="m0 0 4 1v2l-7 1-2 5-3 3 2-7z" fill="#7343A8"/>
<path transform="translate(1077,1171)" d="m0 0 1 2-5 5-3 5-4 3 2-5z" fill="#7343A8"/>
<path transform="translate(1057,84)" d="m0 0 6 2 7 5-2 2-8-5z" fill="#6F2BA7"/>
<path transform="translate(1235,286)" d="m0 0 4 2 6 5-4 1-7-5z" fill="#6E35A4"/>
<path transform="translate(879,1199)" d="m0 0h2v2l-9 7-3-1 4-2v-2z" fill="#341A5D"/>
<path transform="translate(1088,1159)" d="m0 0 1 3-5 4-1 2h-2l-1 3h-2l2-4z" fill="#7343A8"/>
<path transform="translate(1546,438)" d="m0 0m-2 1 2 1-9 8-2-1 4-5z" fill="#FDFEFE"/>
<path transform="translate(866,1209)" d="m0 0h2l-1 3-9 6-3-1z" fill="#32195B"/>
<path transform="translate(367,896)" d="m0 0 3 2-1 7-2 5-1-4z" fill="#7343A8"/>
<path transform="translate(999,55)" d="m0 0 8 1 6 2-1 2-5-1-8-3z" fill="#732EAC"/>
<path transform="translate(281,382)" d="m0 0" fill="#FDFEFE"/>
<path transform="translate(414,247)" d="m0 0 2 1z" fill="#FDFEFE"/>
</svg>
